<svg width="520" height="130" viewBox="0 0 520 130" xmlns="http://www.w3.org/2000/svg" role="img" aria-label="Aureth Tyrian — Crafted like gold. Guarded like a secret.">
  <g transform="translate(10,15) scale(0.72)">
    <polygon points="50,9 62,26 55,26 50,17 45,26 38,26" fill="currentColor" />
    <rect x="21" y="26" width="58" height="8" fill="currentColor" />
    <polygon points="27,34 37,34 23,84 11,84" fill="currentColor" />
    <polygon points="4,84 30,84 30,90 4,90" fill="currentColor" />
    <polygon points="73,34 63,34 77,84 89,84" fill="currentColor" />
    <polygon points="70,84 96,84 96,90 70,90" fill="currentColor" />
    <rect x="44" y="30" width="12" height="32" fill="currentColor" />
    <rect x="30" y="54" width="40" height="8" fill="currentColor" />
  </g>

  <rect x="108" y="18" width="1.5" height="94" fill="currentColor" opacity="0.35" />

  <text x="132" y="66" font-family="'Fraunces','Playfair Display',Georgia,'Times New Roman',serif" font-size="34" letter-spacing="3" fill="currentColor">AURETH TYRIAN</text>
  <text x="466" y="47" font-family="Georgia, serif" font-size="12" fill="currentColor">TM</text>

  <text x="132" y="92" font-family="Inter, 'Helvetica Neue', Arial, sans-serif" font-size="11.5" letter-spacing="2" fill="currentColor" opacity="0.6">CRAFTED LIKE GOLD &#183; GUARDED LIKE A SECRET</text>
</svg>
