<svg width="200" height="200" viewBox="0 0 200 200" xmlns="http://www.w3.org/2000/svg" role="img" aria-label="Aureth Tyrian seal — Web &amp; Software Studio, established 2026">
  <defs>
    <path id="sealTopArc" d="M 24,102 A 76,76 0 0 1 176,102" fill="none" />
    <path id="sealBottomArc" d="M 42,150 A 76,76 0 0 0 158,150" fill="none" />
  </defs>

  <circle cx="100" cy="100" r="92" fill="none" stroke="currentColor" stroke-width="4" />

  <circle cx="16" cy="100" r="2.6" fill="currentColor" />
  <circle cx="184" cy="100" r="2.6" fill="currentColor" />

  <text font-family="'Fraunces','Playfair Display',Georgia,serif" font-size="15.5" letter-spacing="3.4" fill="currentColor">
    <textPath href="#sealTopArc" startOffset="50%" text-anchor="middle">AURETH TYRIAN</textPath>
  </text>

  <text font-family="Inter, 'Helvetica Neue', Arial, sans-serif" font-size="7.6" letter-spacing="1.1" fill="currentColor">
    <textPath href="#sealBottomArc" startOffset="50%" text-anchor="middle">WEB &amp; SOFTWARE STUDIO</textPath>
  </text>

  <g transform="translate(100,88) scale(0.62) translate(-50,-50)">
    <polygon points="50,9 62,26 55,26 50,17 45,26 38,26" fill="currentColor" />
    <rect x="21" y="26" width="58" height="8" fill="currentColor" />
    <polygon points="27,34 37,34 23,84 11,84" fill="currentColor" />
    <polygon points="4,84 30,84 30,90 4,90" fill="currentColor" />
    <polygon points="73,34 63,34 77,84 89,84" fill="currentColor" />
    <polygon points="70,84 96,84 96,90 70,90" fill="currentColor" />
    <rect x="44" y="30" width="12" height="32" fill="currentColor" />
    <rect x="30" y="54" width="40" height="8" fill="currentColor" />
  </g>

  <text x="100" y="139" font-family="Inter, Arial, sans-serif" font-size="10" letter-spacing="2.5" fill="currentColor" text-anchor="middle">EST. 2026</text>
</svg>
